<svg class="icon" width="200px" height="200.00px" viewBox="0 0 1024 1024" version="1.1"
  xmlns="http://www.w3.org/2000/svg">
  <path fill="currentColor"
    d="M120.208696 854.817391V169.182609C151.373913 155.826087 175.86087 124.66087 175.86087 89.043478c0-48.973913-40.069565-89.043478-89.043479-89.043478S0 40.069565 0 89.043478c0 35.617391 24.486957 66.782609 55.652174 80.139131v685.634782C24.486957 868.173913 0 899.33913 0 934.956522c0 48.973913 40.069565 89.043478 89.043478 89.043478 37.843478 0 69.008696-24.486957 82.365218-55.652174h358.4v-64.556522H169.182609c-6.678261-22.26087-26.713043-42.295652-48.973913-48.973913z m707.895652-469.704348h64.556522V115.756522l-645.565218-2.226087L244.869565 178.086957h583.234783v207.026086z" />
  <path fill="currentColor"
    d="M665.6 494.191304h64.556522v-213.704347H242.643478v64.556521h420.730435v149.147826h2.226087z" />
  <path fill="currentColor"
    d="M569.878261 605.495652v-158.052174H247.095652V512h258.226087v93.495652h64.556522zM988.382609 785.808696c0-22.26087 17.808696-40.069565 35.617391-44.521739-11.130435-53.426087-37.843478-102.4-80.13913-135.791305-17.808696 15.582609-37.843478 20.034783-55.652174 8.904348-17.808696-13.356522-28.93913-33.391304-22.26087-53.426087-24.486957-8.904348-51.2-13.356522-80.13913-13.356522s-53.426087 2.226087-80.139131 13.356522c6.678261 20.034783-4.452174 44.521739-22.260869 53.426087-17.808696 13.356522-44.521739 6.678261-55.652174-8.904348-42.295652 33.391304-69.008696 82.365217-80.139131 135.791305 22.26087 6.678261 35.617391 22.26087 35.617392 44.521739 0 24.486957-17.808696 40.069565-35.617392 44.521739 11.130435 53.426087 37.843478 102.4 80.139131 135.791304 17.808696-15.582609 37.843478-20.034783 55.652174-8.904348 17.808696 13.356522 28.93913 33.391304 22.260869 53.426087 24.486957 8.904348 51.2 13.356522 80.139131 13.356522s53.426087-2.226087 80.13913-13.356522c-6.678261-20.034783 4.452174-44.521739 22.26087-53.426087 17.808696-13.356522 44.521739-6.678261 55.652174 8.904348 42.295652-33.391304 69.008696-82.365217 80.13913-135.791304-22.26087-4.452174-35.617391-24.486957-35.617391-44.521739m-195.895652 102.4c-55.652174 0-104.626087-46.747826-104.626087-104.626087s48.973913-104.626087 104.626087-104.626087 104.626087 46.747826 104.626086 104.626087c-4.452174 57.878261-53.426087 104.626087-104.626086 104.626087" />
</svg>
