<svg t="1775040625558" class="icon" viewBox="0 0 1508 1024" version="1.1" xmlns="http://www.w3.org/2000/svg" p-id="5679" width="200" height="200"><path d="M1030.963948 103.506455a70.062351 70.062351 0 0 0-17.203697 2.073871v0.805687h0.895534c3.387714 6.551545 9.191016 11.31202 13.433024 17.156563 3.387714 6.740079 6.268744 13.433024 9.662351 20.125969l0.895534-0.942668c5.891677-4.147741 8.813949-10.793552 8.813949-20.927237-2.503963-2.969405-2.875138-5.891677-5.043275-8.813949-2.503963-4.194874-7.918414-6.268744-11.45342-9.473817zM362.634196 932.651005H304.378766c-1.885337-98.175961-7.72988-190.413111-16.96803-277.135651h-0.518467L198.284391 932.651005h-44.303938l-87.992197-277.135651h-0.612734q-9.685917 124.710601-12.254689 277.135651H0.001473q5.155217-185.293243 25.776087-347.504369h72.257l83.894536 255.404201h0.518467l84.648671-255.404201h68.813315q22.830249 189.965343 26.723174 347.504369z m252.437741-256.392529q-35.63139 192.793348-93.74542 280.296536-45.458707 67.517146-99.495696 67.446446c-9.615217 0-21.357329-2.875138-35.584256-8.672548v-31.068286a159.277071 159.277071 0 0 0 24.272236 1.649669c16.82663 0 30.352447-4.713342 40.674666-13.951491 12.396089-11.31202 18.523433-23.989436 18.523432-38.035194q0-14.634926-14.469959-59.339499l-63.721433-198.325633h57.171361l45.670808 148.32297q15.483327 50.549116 12.867423 70.552833 37.681694-100.320531 52.458019-218.875803z m774.566999 256.392529H1224.346464V585.148109h55.62185v304.801494h109.676514z m-208.653743 8.484015l-63.864306-31.436515a136.041769 136.041769 0 0 0 16.025362-15.695428q40.799864-47.722584 40.721799-141.584364 0-172.502413-135.409887-172.549546-66.384471 0-103.693516 43.78547-40.50528 47.862512-40.580399 141.065897 0 91.624416 36.055591 134.467219c22.009833 25.776087 55.097491 38.647929 99.495696 38.647928a159.322731 159.322731 0 0 0 45.576541-6.174477l83.287692 48.498812z m-206.862673-78.049991q-21.210037-33.934587-21.162904-109.110914 0-131.285713 79.793928-131.356413c27.854376 0 48.404546 10.510752 61.413369 31.436516q21.139337 34.146687 21.115771 108.259566 0 132.346215-79.793928 132.487615c-27.948643 0-48.404546-10.510752-61.319102-31.719316z m-104.214929-26.720229q0 44.33487-32.426318 72.629649c-21.632765 18.853367-50.478416 28.28005-86.958208 28.28005-34.123121 0-66.880845-10.793552-98.832882-32.379184l14.897105-29.94003c27.524442 13.810091 52.363753 20.597303 74.797786 20.597303q31.318682 0 49.205814-13.810091a47.314586 47.314586 0 0 0 18.853367-38.647929c0-20.738703-14.469959-38.317995-40.721799-53.117887-24.366503-13.38589-73.100983-41.2874-73.100983-41.2874-26.534641-19.277567-39.731997-39.967664-39.731997-73.949385 0-28.28005 9.850884-50.902617 29.551179-68.196162 19.796035-17.486498 45.246607-26.070671 76.683123-26.070671 32.190651 0 61.601902 8.531148 87.995142 25.776088l-13.38589 29.945921c-22.622567-9.573975-44.916673-14.469959-66.880845-14.469959-17.769298 0-31.530783 4.289141-41.094448 12.96169-9.615217 8.531148-15.601161 19.466101-15.60116 32.944785 0 20.597303 14.705626 38.317995 41.853 53.400688 24.696437 13.527291 74.609252 42.088668 74.609253 42.088668 27.194508 19.183301 40.721799 39.590597 40.344732 73.19525z m589.580123-367.727551c-33.604653-0.895535-59.716566 2.503963-81.490731 11.830488-6.268744 2.503963-16.349404 2.503963-17.203697 10.510752 3.440739 3.346473 3.959207 8.813949 6.92272 13.433024 5.043276 8.436882 13.715824 19.654635 21.728505 25.591972 8.813949 6.922721 17.580764 13.574424 26.817441 19.466101 16.349404 10.039418 34.877255 16.025362 50.902617 26.157573 9.096749 5.891677 18.429166 13.38589 27.665843 19.654635 4.56605 3.157939 7.541347 8.813949 13.433023 10.793552v-1.272602c-2.875138-3.770673-3.770673-9.23815-6.598678-13.433024-4.194874-4.194874-8.436882-7.965547-12.584622-12.113288a202.613301 202.613301 0 0 0-43.691204-42.420075c-13.433024-9.191016-42.842803-22.011305-48.404546-37.375326l-0.801268-0.895535c9.191016-0.801268 20.125969-4.147741 28.891311-6.645812 14.287317-3.770673 27.335909-2.969405 42.088668-6.645811 6.645812-1.696803 13.38589-3.770673 20.125969-5.891677v-3.770674c-7.541347-7.541347-13.197357-17.769298-20.97437-24.837837a555.978416 555.978416 0 0 0-69.374498-51.699467c-13.197357-8.436882-29.928247-13.810091-43.785471-20.97437-5.043276-2.503963-13.433024-3.770673-16.349404-7.965547-7.541347-9.191016-11.930646-21.357329-17.297963-32.284918-12.066155-23.142507-23.896642-48.687346-34.358788-73.100983-7.541347-16.449562-12.113288-32.8461-21.357329-47.933211-43.36127-71.451314-90.30468-114.766923-162.511602-157.091259-15.506894-8.813949-34.123121-12.584622-53.777755-17.203697-10.510752-0.518468-20.97437-1.272602-31.436516-1.696803-6.922721-2.969405-13.574424-10.934953-19.466101-14.752759-23.89075-15.084166-85.726847-47.747624-103.307611-4.524808-11.31202 27.288775 16.779496 54.154823 26.53464 68.012047 7.217304 9.615217 16.349404 20.597303 21.35733 31.436516 2.969405 7.30568 3.770673 14.752759 6.740078 22.388373 6.645812 18.476299 13.008823 39.072129 21.821299 56.370093a191.834478 191.834478 0 0 0 15.506894 25.969039c3.387714 4.56605 9.191016 6.740079 10.510752 14.287317-5.891677 8.531148-6.268744 20.97437-9.66235 31.436516-15.082693 47.556144-9.191016 106.377175 12.207555 141.40025 6.740079 10.416485 22.76544 33.55752 44.162538 24.696437 18.853367-7.541347 14.705626-31.436516 20.125969-52.45802 1.272602-5.043276 0.424201-8.342615 3.016538-11.73622v0.942668c5.891677 11.830488 11.830488 23.048241 17.203697 34.877255 12.96169 20.597303 35.584257 41.994401 54.484757 56.228693 10.039418 7.541347 18.052099 20.597303 30.588114 25.262038v-1.272602h-0.942668c-2.686605-3.629273-6.268744-5.420343-9.66235-8.342615a219.308841 219.308841 0 0 1-22.017198-25.133894 550.507994 550.507994 0 0 1-46.94341-76.541722c-6.922721-13.197357-12.678889-27.383042-18.240632-40.391865-2.503963-5.043276-2.503963-12.584622-6.740078-15.082694-6.268744 9.191016-15.506894 17.156564-20.125969 28.467111-7.965547 18.099232-8.813949 40.344732-11.830488 63.48282-1.696803 0.424201-0.895535 0-1.696803 0.895535-13.433024-3.252206-18.052099-17.203697-23.04824-28.891311-12.584622-29.83398-14.658493-77.814325-3.770674-112.174586 2.969405-8.813949 15.506894-36.574058 10.510752-45.010939-2.639471-7.965547-10.934953-12.584622-15.506894-19.041901a155.56826 155.56826 0 0 1-15.082693-26.817441c-10.039418-23.518102-15.082693-49.535748-26.016173-73.006716-5.043276-10.887819-13.810091-22.241081-20.97437-32.237784-7.965547-11.31202-16.779496-19.277567-23.141035-32.661985-2.07387-4.56605-5.043276-12.207555-1.696803-17.203697 0.895535-3.387714 2.639471-4.713342 5.891677-5.65601 5.51461-4.524808 21.062745 1.366869 26.534641 3.912074 15.506894 6.268744 28.608511 12.207555 41.617334 20.97437 5.891677 4.147741 12.254688 12.113288 19.796034 14.187159h8.813949c13.433024 2.969405 28.608511 0.895535 41.146 4.566049a269.638492 269.638492 0 0 1 60.4707 28.891312 373.885826 373.885826 0 0 1 131.026479 143.658234c5.043276 9.66235 7.217304 18.523433 11.830488 28.608511 8.813949 20.738703 19.654635 41.664467 28.608511 61.69617 8.813949 19.796035 17.297964 39.967664 29.928246 56.370093 6.268744 8.813949 31.530783 13.38589 42.842803 17.957831 8.342615 3.770673 21.357329 7.217304 28.891311 11.830488 14.469959 8.813949 28.514244 18.853367 42.088668 28.514244 6.922721 4.760475 27.854376 15.271227 29.079845 23.753769z" fill="#4479A1" p-id="5680"></path></svg>
